# xmcd CD database file
#
# Track frame offsets:
#	150
#	28662
#	56907
#
# Disc length: 1135 seconds
#
# Revision: 0
# Processed by: cddbd v1.5.1PL0 Copyright (c) Steve Scherf et al.
# Submitted via: CDex 1.51
#
DISCID=23046d03
DTITLE=長渕　剛 - 友よ
DYEAR=1995
DGENRE=J-POP
TTITLE0=友よ
TTITLE1=恋というもの
TTITLE2=友よ <オリジナル・カラオケ>
EXTD=YEAR: 1995
EXTT0=
EXTT1=
EXTT2=
PLAYORDER=
